<svg width="150" height="40" viewBox="0 0 150 40" fill="none" xmlns="http://www.w3.org/2000/svg">
<g clip-path="url(#clip0_1453_62644)">
<path d="M58.8564 33.0163L63.312 20.9406C63.5155 20.3761 63.8338 19.9557 64.2639 19.6878C64.6939 19.4171 65.1756 19.2817 65.7146 19.2817C66.2537 19.2817 66.7583 19.4142 67.1941 19.6763C67.6299 19.9413 67.9424 20.356 68.1345 20.9204L72.6101 33.0135H69.9781L68.9602 30.0816H62.4117L61.3738 33.0135H58.8593L58.8564 33.0163ZM63.1399 27.962H68.2492L66.1361 21.7499C66.0988 21.6347 66.0472 21.5483 65.9813 21.4907C65.9182 21.4331 65.8351 21.4043 65.7318 21.4043C65.643 21.4043 65.5655 21.4331 65.5025 21.4907C65.4394 21.5483 65.3878 21.6347 65.3476 21.7499L63.1399 27.962Z" fill="white"/>
<path d="M73.1434 33.0161V27.1525C73.1434 26.3807 73.3269 25.678 73.691 25.0415C74.0552 24.405 74.577 23.8981 75.2565 23.518C75.936 23.1378 76.7531 22.9478 77.7136 22.9478C78.1752 22.9478 78.6168 23.0054 79.0383 23.1206C79.4597 23.2358 79.8525 23.4143 80.2109 23.6505C80.5693 23.8895 80.8704 24.189 81.1141 24.5461H81.1341C81.4036 24.1861 81.7162 23.8866 82.0746 23.6505C82.4329 23.4114 82.8257 23.2358 83.2558 23.1206C83.6859 23.0054 84.1303 22.9478 84.589 22.9478C85.5495 22.9478 86.3695 23.1378 87.0462 23.518C87.7257 23.8981 88.2475 24.405 88.6116 25.0415C88.9757 25.678 89.1592 26.3807 89.1592 27.1525V33.0161H86.8541V27.1525C86.8541 26.7407 86.7508 26.3692 86.5473 26.0351C86.3437 25.701 86.0713 25.4332 85.7301 25.2345C85.3918 25.0357 85.0105 24.9349 84.5862 24.9349C84.1618 24.9349 83.7805 25.0357 83.4336 25.2345C83.0866 25.4332 82.8114 25.701 82.6078 26.0351C82.4043 26.3692 82.301 26.7436 82.301 27.1525V33.0161H79.9959V27.1525C79.9959 26.7407 79.8927 26.3692 79.6891 26.0351C79.4827 25.701 79.2103 25.4332 78.8634 25.2345C78.5164 25.0357 78.1322 24.9349 77.7108 24.9349C77.2893 24.9349 76.908 25.0357 76.5668 25.2345C76.2285 25.4332 75.9561 25.701 75.7497 26.0351C75.5461 26.3692 75.4429 26.7436 75.4429 27.1525V33.0161H73.1377H73.1434Z" fill="white"/>
<path d="M98.1563 23.3337C98.7899 23.59 99.3232 23.9529 99.759 24.4223C100.195 24.8917 100.533 25.4505 100.777 26.1013C101.021 26.7522 101.141 27.4751 101.141 28.27C101.141 29.2607 100.94 30.1275 100.536 30.8734C100.132 31.6194 99.5755 32.2011 98.8644 32.6187C98.1534 33.0363 97.3305 33.2466 96.3958 33.2466C95.9486 33.2466 95.5214 33.1803 95.12 33.045C94.7157 32.9096 94.3544 32.7166 94.0362 32.4661C93.7151 32.2155 93.4484 31.9304 93.2305 31.6078H93.2105V37.2584H90.9053V28.2325C90.9053 27.1525 91.1203 26.2136 91.5475 25.4159C91.9776 24.6181 92.5739 24.0076 93.3423 23.5842C94.1107 23.1609 94.9995 22.9478 96.0116 22.9478C96.8058 22.9478 97.5198 23.0774 98.1534 23.3337H98.1563ZM94.5666 25.341C94.1509 25.6117 93.8269 25.9832 93.5975 26.4584C93.3681 26.9336 93.2506 27.4808 93.2506 28.0972C93.2506 28.7135 93.3653 29.2607 93.5975 29.7359C93.8269 30.2111 94.1537 30.5855 94.5781 30.8533C94.9995 31.124 95.4812 31.2594 96.0174 31.2594C96.5535 31.2594 97.0667 31.1211 97.4767 30.8446C97.8867 30.5682 98.2107 30.1909 98.4458 29.7157C98.6838 29.2405 98.8014 28.6991 98.8014 28.0943C98.8014 27.4895 98.6838 26.9308 98.4458 26.4556C98.2079 25.9804 97.881 25.606 97.4653 25.3381C97.0495 25.0674 96.565 24.9321 96.0145 24.9321C95.464 24.9321 94.9795 25.0674 94.5637 25.3381L94.5666 25.341Z" fill="white"/>
<path d="M102.391 33.0162V18.936H104.696V33.0162H102.391Z" fill="white"/>
<path d="M107.689 21.8506C107.294 21.8506 106.947 21.7037 106.652 21.407C106.356 21.1104 106.21 20.7648 106.21 20.3645C106.21 19.9642 106.356 19.6186 106.652 19.3219C106.947 19.0253 107.291 18.8784 107.689 18.8784C108.088 18.8784 108.432 19.0253 108.727 19.3219C109.023 19.6186 109.169 19.9642 109.169 20.3645C109.169 20.7648 109.023 21.1104 108.727 21.407C108.432 21.7037 108.088 21.8506 107.689 21.8506ZM106.517 33.0191V23.1811H108.839V33.0191H106.517Z" fill="white"/>
<path d="M115.37 33.0162C114.358 33.0162 113.455 32.7973 112.664 32.3596C111.87 31.9218 111.242 31.3343 110.783 30.5942C110.321 29.854 110.092 29.0217 110.092 28.0972C110.092 27.1727 110.321 26.3376 110.783 25.6003C111.245 24.8601 111.87 24.2726 112.664 23.8349C113.458 23.3971 114.361 23.1782 115.37 23.1782H116.56V25.1654H115.35C114.763 25.1654 114.249 25.295 113.814 25.5513C113.378 25.8076 113.039 26.159 112.796 26.6025C112.552 27.046 112.432 27.5443 112.432 28.0972C112.432 28.6502 112.552 29.1484 112.796 29.5919C113.039 30.0354 113.378 30.3868 113.814 30.6431C114.249 30.8994 114.76 31.029 115.35 31.029H116.56V33.0162H115.37Z" fill="white"/>
<path d="M122.341 33.2494C121.343 33.2494 120.448 33.0219 119.663 32.5639C118.874 32.1089 118.255 31.4897 117.799 30.7121C117.343 29.9345 117.117 29.0619 117.117 28.0971C117.117 27.1323 117.343 26.2626 117.799 25.4821C118.252 24.7045 118.874 24.0882 119.663 23.6303C120.451 23.1752 121.343 22.9448 122.341 22.9448C123.338 22.9448 124.25 23.1723 125.039 23.6303C125.827 24.0882 126.446 24.7045 126.902 25.4821C127.355 26.2597 127.585 27.1323 127.585 28.0971C127.585 29.0619 127.358 29.9316 126.902 30.7121C126.446 31.4897 125.827 32.106 125.039 32.5639C124.25 33.019 123.353 33.2494 122.341 33.2494ZM122.341 31.2622C122.928 31.2622 123.442 31.1211 123.877 30.8388C124.313 30.5566 124.649 30.1764 124.887 29.7012C125.125 29.2261 125.242 28.6933 125.242 28.1C125.242 27.5067 125.125 26.9739 124.887 26.4987C124.649 26.0235 124.313 25.6434 123.877 25.3611C123.442 25.0789 122.931 24.9378 122.341 24.9378C121.75 24.9378 121.242 25.0789 120.812 25.3611C120.382 25.6434 120.05 26.0235 119.815 26.4987C119.577 26.9739 119.459 27.5096 119.459 28.1C119.459 28.6904 119.577 29.2261 119.815 29.7012C120.053 30.1764 120.385 30.5566 120.812 30.8388C121.242 31.1211 121.75 31.2622 122.341 31.2622Z" fill="white"/>
<path d="M131.243 32.8636C130.609 32.6073 130.073 32.2445 129.64 31.775C129.204 31.3056 128.866 30.7469 128.622 30.096C128.379 29.448 128.258 28.7222 128.258 27.9274C128.258 26.9367 128.459 26.0698 128.863 25.3239C129.268 24.578 129.824 23.9962 130.535 23.5786C131.246 23.161 132.069 22.9508 133.003 22.9508C133.451 22.9508 133.878 23.017 134.279 23.1524C134.684 23.2877 135.045 23.4807 135.363 23.7312C135.684 23.9818 135.951 24.2669 136.169 24.5895H136.189V18.939H138.494V27.9648C138.494 29.0448 138.279 29.9837 137.852 30.7814C137.422 31.5792 136.825 32.1897 136.057 32.6131C135.289 33.0364 134.4 33.2496 133.388 33.2496C132.593 33.2496 131.879 33.12 131.246 32.8636H131.243ZM134.833 30.8563C135.248 30.5856 135.572 30.2141 135.802 29.7389C136.031 29.2637 136.149 28.7165 136.149 28.1002C136.149 27.4839 136.034 26.9367 135.802 26.4615C135.572 25.9863 135.246 25.6119 134.821 25.344C134.4 25.0733 133.918 24.938 133.382 24.938C132.846 24.938 132.332 25.0762 131.922 25.3527C131.512 25.6291 131.189 26.0064 130.953 26.4816C130.715 26.9568 130.598 27.4983 130.598 28.103C130.598 28.7078 130.715 29.2666 130.953 29.7418C131.191 30.2169 131.515 30.5913 131.934 30.8592C132.35 31.1299 132.834 31.2653 133.385 31.2653C133.935 31.2653 134.417 31.1299 134.835 30.8592L134.833 30.8563Z" fill="white"/>
<path d="M145.192 33.0162C144.091 33.0162 143.127 32.803 142.301 32.3797C141.476 31.9563 140.833 31.3746 140.372 30.6344C139.91 29.8943 139.681 29.0504 139.681 28.0972C139.681 27.0805 139.884 26.1848 140.294 25.4073C140.704 24.6297 141.269 24.0249 141.995 23.5929C142.717 23.1609 143.54 22.9478 144.463 22.9478C145.538 22.9478 146.416 23.1753 147.095 23.6332C147.775 24.0911 148.277 24.6988 148.603 25.4562C148.93 26.2165 149.094 27.0632 149.094 28.0021C149.094 28.1317 149.088 28.2786 149.074 28.4456C149.062 28.6127 149.042 28.748 149.016 28.8517H142.141C142.23 29.3269 142.413 29.7301 142.689 30.0584C142.964 30.3867 143.319 30.6315 143.755 30.7899C144.191 30.9512 144.67 31.0318 145.194 31.0318H147.864V33.019H145.194L145.192 33.0162ZM142.118 27.2677H146.766C146.754 27.0229 146.714 26.7839 146.651 26.5448C146.588 26.3058 146.496 26.0898 146.381 25.8882C146.267 25.6895 146.118 25.5109 145.94 25.3583C145.759 25.2028 145.55 25.0847 145.306 25.0012C145.063 24.9177 144.787 24.8745 144.48 24.8745C144.108 24.8745 143.784 24.9407 143.5 25.0761C143.219 25.2114 142.978 25.3929 142.78 25.6261C142.582 25.8565 142.428 26.1157 142.319 26.398C142.21 26.6802 142.144 26.9711 142.118 27.2648V27.2677Z" fill="white"/>
<path d="M26.9969 32.4026V32.4141C26.3948 33.785 25.7239 35.1155 24.9785 36.4H24.9412L24.2617 36.3136L20.652 35.8298L20.5459 35.8183V35.8096C20.5574 34.1507 20.4541 32.4832 20.219 30.8301C19.9811 29.1223 19.6055 27.4231 19.0951 25.7441C19.0951 25.7354 19.0922 25.7268 19.0865 25.7182C19.0836 25.6923 19.0693 25.6692 19.0607 25.6433C17.7103 21.5595 15.5169 17.7838 12.5667 14.5266L18.321 11.229C20.3968 13.7115 22.1085 16.4101 23.4474 19.244C24.5255 21.5278 25.3684 23.9009 25.9762 26.3287C26.3547 27.8522 26.6443 29.3988 26.8364 30.954C26.8937 31.4004 26.9425 31.8439 26.9855 32.2903C26.9883 32.3277 26.9883 32.3594 26.9941 32.3968L26.9969 32.4026Z" fill="#FAAE3A"/>
<path d="M19.0636 25.6431C18.6335 29.0184 17.7017 32.2469 16.2767 35.2449L11.48 34.6056L10.2271 34.4385L9.33252 34.3176C10.1066 33.0302 10.7632 31.6622 11.2936 30.2366V30.2395C11.3108 30.1906 11.328 30.1474 11.3424 30.0984C11.3768 30.0034 11.4112 29.9083 11.4427 29.8133C11.4685 29.7384 11.4943 29.6635 11.5201 29.5858C11.5287 29.5656 11.5345 29.5454 11.5402 29.5253C13.0254 25.044 13.1773 20.1135 12.0563 15.3587C12.042 15.3097 12.0305 15.2608 12.019 15.2089C11.9932 15.1024 11.9674 14.9929 11.9416 14.8864L12.5695 14.5264C15.5169 17.7807 17.7103 21.5564 19.0636 25.6402V25.6431Z" fill="#FAAE3A"/>
<path d="M11.2908 30.2313C10.7603 31.6627 10.1038 33.0278 9.32965 34.318H9.32391L7.29111 34.0444C7.29111 33.9494 7.29111 33.8514 7.29111 33.7564C7.28538 32.4258 7.15923 31.0953 6.90692 29.7763C6.76356 29.0131 6.57433 28.2556 6.34783 27.5011C6.34209 27.4838 6.33923 27.4665 6.33349 27.4492L6.32776 27.4348C5.49342 24.8601 4.13153 22.4755 2.2937 20.4192L6.01811 18.2852C7.00727 19.4919 7.86167 20.7763 8.58419 22.1184C9.57335 23.9501 10.3188 25.8883 10.8177 27.887C11.0098 28.6502 11.1617 29.422 11.2822 30.1967C11.285 30.2111 11.2879 30.2255 11.2879 30.2371L11.2908 30.2313Z" fill="#4DBB84"/>
<path d="M6.32776 27.4316C6.04965 29.6261 5.44468 31.7228 4.5186 33.6696L0.587762 33.1455L0 33.0677C0.223636 32.7048 0.43007 32.3333 0.616434 31.956C2.31951 28.5433 2.6779 24.543 1.76902 20.7155L2.29657 20.4131C4.13441 22.4723 5.49629 24.8569 6.33063 27.4287L6.32776 27.4316Z" fill="#4DBB84"/>
<path d="M51.9496 40L41.6509 38.6263C41.691 33.3703 40.9542 28.1028 39.3944 22.9592C39.383 22.9217 39.3686 22.8901 39.36 22.8526C39.3514 22.8353 39.3486 22.8209 39.3428 22.7979C38.9472 21.6171 38.5056 20.4507 38.0211 19.2958C35.822 14.0687 32.7771 9.31385 28.9609 5.12636L37.0118 0.512636C37.3072 0.342717 37.6082 0.172799 37.9064 0H37.9093C41.2953 3.98589 44.0593 8.32601 46.2153 12.9081C46.2842 13.0578 46.3558 13.2047 46.4246 13.3602C46.4935 13.51 46.5651 13.6569 46.6311 13.8066C48.099 17.0639 49.2602 20.4306 50.1204 23.875C51.4307 29.131 52.0356 34.5568 51.9496 40.0029V40Z" fill="#ED306E"/>
<path d="M39.3428 22.798C38.6661 28.0482 37.2211 33.0766 35.0077 37.7422L24.9756 36.4001H24.9383L24.2588 36.3137C24.2588 36.3137 24.2617 36.3108 24.2617 36.305C24.987 35.0465 25.6465 33.7476 26.2342 32.4027C26.3088 32.2443 26.3747 32.083 26.4407 31.9217C26.4693 31.8584 26.498 31.7979 26.5238 31.7316C26.6299 31.4753 26.7331 31.219 26.8363 30.9569C27.966 28.0885 28.7717 25.0559 29.2103 21.9052C29.2218 21.813 29.2361 21.7237 29.2419 21.6316C29.2677 21.4703 29.282 21.309 29.3049 21.142C29.8898 16.0243 29.4856 10.7309 28.1266 5.59873H28.1352L28.958 5.12354C32.7742 9.31102 35.8162 14.0659 38.0182 19.293C38.5056 20.4479 38.9442 21.6143 39.3399 22.7951L39.3428 22.798Z" fill="#ED306E"/>
<path style="mix-blend-mode:multiply" d="M39.3428 22.798C38.6661 28.0482 37.2211 33.0766 35.0077 37.7422L24.9756 36.4001H24.9383L24.2588 36.3137C24.2588 36.3137 24.2617 36.3108 24.2617 36.305C24.987 35.0465 25.6465 33.7476 26.2342 32.4027C26.3088 32.2443 26.3747 32.083 26.4407 31.9217C26.4693 31.8584 26.498 31.7979 26.5238 31.7316C26.6299 31.4753 26.7331 31.219 26.8363 30.9569C27.966 28.0885 28.7717 25.0559 29.2103 21.9052C29.2218 21.813 29.2361 21.7237 29.2419 21.6316C29.2677 21.4703 29.282 21.309 29.3049 21.142C29.8898 16.0243 29.4856 10.7309 28.1266 5.59873H28.1352L28.958 5.12354C32.7742 9.31102 35.8162 14.0659 38.0182 19.293C38.5056 20.4479 38.9442 21.6143 39.3399 22.7951L39.3428 22.798Z" fill="url(#paint0_linear_1453_62644)"/>
<path style="mix-blend-mode:multiply" d="M19.0636 25.6431C18.6335 29.0184 17.7017 32.2469 16.2767 35.2449L11.48 34.6056L10.2271 34.4385L9.33252 34.3176C10.1066 33.0302 10.7632 31.6622 11.2936 30.2366V30.2395C11.3108 30.1906 11.328 30.1474 11.3424 30.0984C11.3768 30.0034 11.4112 29.9083 11.4427 29.8133C11.4685 29.7384 11.4943 29.6635 11.5201 29.5858C11.5287 29.5656 11.5345 29.5454 11.5402 29.5253C13.0254 25.044 13.1773 20.1135 12.0563 15.3587C12.042 15.3097 12.0305 15.2608 12.019 15.2089C11.9932 15.1024 11.9674 14.9929 11.9416 14.8864L12.5695 14.5264C15.5169 17.7807 17.7103 21.5564 19.0636 25.6402V25.6431Z" fill="url(#paint1_linear_1453_62644)"/>
<path style="mix-blend-mode:multiply" d="M6.32776 27.4316C6.04965 29.6261 5.44468 31.7228 4.5186 33.6696L0.587762 33.1455L0 33.0677C0.223636 32.7048 0.43007 32.3333 0.616434 31.956C2.31951 28.5433 2.6779 24.543 1.76902 20.7155L2.29657 20.4131C4.13441 22.4723 5.49629 24.8569 6.33063 27.4287L6.32776 27.4316Z" fill="url(#paint2_linear_1453_62644)"/>
</g>
<defs>
<linearGradient id="paint0_linear_1453_62644" x1="16.2796" y1="36.7543" x2="55.0204" y2="-1.12279" gradientUnits="userSpaceOnUse">
<stop stop-color="white"/>
<stop offset="1" stop-color="#231F20"/>
</linearGradient>
<linearGradient id="paint1_linear_1453_62644" x1="6.08119" y1="35.2507" x2="26.0539" y2="10.1378" gradientUnits="userSpaceOnUse">
<stop stop-color="white"/>
<stop offset="1" stop-color="#231F20"/>
</linearGradient>
<linearGradient id="paint2_linear_1453_62644" x1="-3.2886" y1="35.0895" x2="10.4609" y2="18.3652" gradientUnits="userSpaceOnUse">
<stop stop-color="white"/>
<stop offset="1" stop-color="#231F20"/>
</linearGradient>
<clipPath id="clip0_1453_62644">
<rect width="150" height="40" fill="white"/>
</clipPath>
</defs>
</svg>
